# xmcd
#
# Track frame offsets: 
#        182
#        14600
#        29052
#        40230
#        55507
#        67720
#        88240
#        109057
#        123595
#        140045
#        157257
#
# Disc length: 2282 seconds
#
# Revision: 14
# Processed by: cddbd v1.5.2PL0 Copyright (c) Steve Scherf et al.
# Submitted via: ExactAudioCopy v0.99pb5
#
DISCID=9c08e80b
DTITLE=Arne Domnerus and Gustaf Sjokvist - Antiphone Blues
DYEAR=1975
DGENRE=Jazz
TTITLE0=Almighty God
TTITLE1=Nobody Knows The Trouble I've Seen
TTITLE2=Sometimes I Feel Like A Motherless Child
TTITLE3=Antiphone Blues
TTITLE4=Jag vet en dejlig rosa
TTITLE5=Traumerei
TTITLE6=Come Sunday
TTITLE7=Heaven
TTITLE8=Entonigt klingar den Iilla klockan
TTITLE9=Den signade dag
TTITLE10=Largo
EXTD=
EXTT0=
EXTT1=
EXTT2=
EXTT3=
EXTT4=
EXTT5=
EXTT6=
EXTT7=
EXTT8=
EXTT9=
EXTT10=
PLAYORDER=
